<?xml version="1.0" standalone="no"?>
<svg xmlns:xlink="http://www.w3.org/1999/xlink" id="wave" style="transform:rotate(180deg); transition: 0.3s" viewBox="0 0 1440 490" version="1.1" xmlns="http://www.w3.org/2000/svg"><defs><linearGradient id="sw-gradient-0" x1="0" x2="0" y1="1" y2="0"><stop stop-color="rgba(0, 0, 0, 0.43)" offset="0%"/><stop stop-color="rgba(255, 15.649, 11, 0.55)" offset="100%"/></linearGradient></defs><path style="transform:translate(0, 0px); opacity:1" fill="url(#sw-gradient-0)" d="M0,245L80,261.3C160,278,320,310,480,318.5C640,327,800,310,960,285.8C1120,261,1280,229,1440,212.3C1600,196,1760,196,1920,171.5C2080,147,2240,98,2400,81.7C2560,65,2720,82,2880,106.2C3040,131,3200,163,3360,196C3520,229,3680,261,3840,261.3C4000,261,4160,229,4320,253.2C4480,278,4640,359,4800,334.8C4960,310,5120,180,5280,179.7C5440,180,5600,310,5760,351.2C5920,392,6080,343,6240,334.8C6400,327,6560,359,6720,367.5C6880,376,7040,359,7200,343C7360,327,7520,310,7680,277.7C7840,245,8000,196,8160,187.8C8320,180,8480,212,8640,261.3C8800,310,8960,376,9120,400.2C9280,425,9440,408,9600,359.3C9760,310,9920,229,10080,220.5C10240,212,10400,278,10560,302.2C10720,327,10880,310,11040,261.3C11200,212,11360,131,11440,89.8L11520,49L11520,490L11440,490C11360,490,11200,490,11040,490C10880,490,10720,490,10560,490C10400,490,10240,490,10080,490C9920,490,9760,490,9600,490C9440,490,9280,490,9120,490C8960,490,8800,490,8640,490C8480,490,8320,490,8160,490C8000,490,7840,490,7680,490C7520,490,7360,490,7200,490C7040,490,6880,490,6720,490C6560,490,6400,490,6240,490C6080,490,5920,490,5760,490C5600,490,5440,490,5280,490C5120,490,4960,490,4800,490C4640,490,4480,490,4320,490C4160,490,4000,490,3840,490C3680,490,3520,490,3360,490C3200,490,3040,490,2880,490C2720,490,2560,490,2400,490C2240,490,2080,490,1920,490C1760,490,1600,490,1440,490C1280,490,1120,490,960,490C800,490,640,490,480,490C320,490,160,490,80,490L0,490Z"/><defs><linearGradient id="sw-gradient-1" x1="0" x2="0" y1="1" y2="0"><stop stop-color="rgba(0, 0, 0, 0.58)" offset="0%"/><stop stop-color="rgba(243.936, 0, 0, 0.95)" offset="100%"/></linearGradient></defs><path style="transform:translate(0, 50px); opacity:0.9" fill="url(#sw-gradient-1)" d="M0,343L80,302.2C160,261,320,180,480,122.5C640,65,800,33,960,24.5C1120,16,1280,33,1440,57.2C1600,82,1760,114,1920,106.2C2080,98,2240,49,2400,81.7C2560,114,2720,229,2880,253.2C3040,278,3200,212,3360,204.2C3520,196,3680,245,3840,285.8C4000,327,4160,359,4320,351.2C4480,343,4640,294,4800,277.7C4960,261,5120,278,5280,294C5440,310,5600,327,5760,326.7C5920,327,6080,310,6240,294C6400,278,6560,261,6720,220.5C6880,180,7040,114,7200,106.2C7360,98,7520,147,7680,212.3C7840,278,8000,359,8160,400.2C8320,441,8480,441,8640,383.8C8800,327,8960,212,9120,155.2C9280,98,9440,98,9600,81.7C9760,65,9920,33,10080,32.7C10240,33,10400,65,10560,106.2C10720,147,10880,196,11040,245C11200,294,11360,343,11440,367.5L11520,392L11520,490L11440,490C11360,490,11200,490,11040,490C10880,490,10720,490,10560,490C10400,490,10240,490,10080,490C9920,490,9760,490,9600,490C9440,490,9280,490,9120,490C8960,490,8800,490,8640,490C8480,490,8320,490,8160,490C8000,490,7840,490,7680,490C7520,490,7360,490,7200,490C7040,490,6880,490,6720,490C6560,490,6400,490,6240,490C6080,490,5920,490,5760,490C5600,490,5440,490,5280,490C5120,490,4960,490,4800,490C4640,490,4480,490,4320,490C4160,490,4000,490,3840,490C3680,490,3520,490,3360,490C3200,490,3040,490,2880,490C2720,490,2560,490,2400,490C2240,490,2080,490,1920,490C1760,490,1600,490,1440,490C1280,490,1120,490,960,490C800,490,640,490,480,490C320,490,160,490,80,490L0,490Z"/></svg>